<svg width="32" height="32" viewBox="0 0 32 32" fill="none" xmlns="http://www.w3.org/2000/svg">
<path fill-rule="evenodd" clip-rule="evenodd" d="M4 0C1.79086 0 0 1.79086 0 4V28C0 30.2091 1.79086 32 4 32H28C30.2091 32 32 30.2091 32 28V4C32 1.79086 30.2091 0 28 0H4ZM12.2613 20.6667L16.3013 11.3333H14.1547L11.2747 18L8.43465 11.3333H6.10132L10.128 20.6667H12.2613ZM21.2273 18.0667L23.0273 20.6667H25.3473L23.2539 17.6667C23.8673 17.4 24.3384 17.0178 24.6673 16.52C25.005 16.0133 25.1739 15.4133 25.1739 14.72C25.1739 14.0267 25.0095 13.4267 24.6806 12.92C24.3517 12.4133 23.8806 12.0222 23.2673 11.7467C22.6628 11.4711 21.9473 11.3333 21.1206 11.3333H17.0806V20.6667H19.2406V18.0667H21.1206H21.2273ZM22.4806 13.52C22.8184 13.7956 22.9873 14.1956 22.9873 14.72C22.9873 15.2356 22.8184 15.6356 22.4806 15.92C22.1428 16.2044 21.6495 16.3467 21.0006 16.3467H19.2406V13.0933H21.0006C21.6495 13.0933 22.1428 13.2356 22.4806 13.52Z" fill="black"/>
</svg>
